<?xml version="1.0" encoding="utf-8"?>
<!-- Generator: Adobe Illustrator 18.1.1, SVG Export Plug-In . SVG Version: 6.00 Build 0)  -->
<svg version="1.1" id="Layer_1" xmlns="http://www.w3.org/2000/svg" xmlns:xlink="http://www.w3.org/1999/xlink" x="0px" y="0px"
	 viewBox="0 0 377.9 377.9" enable-background="new 0 0 377.9 377.9" xml:space="preserve">
<rect x="0" y="0" fill="#00A79D" width="377.9" height="377.9"/>
<g>
	<path d="M134,206.5h22.7c6.1,0,11,1.8,14.8,5.3c3.7,3.6,5.6,8.2,5.6,14c0,3.8-0.9,7.4-2.8,10.9c-1.8,3.4-4.6,6-8.3,7.7
		c-3.7,1.7-6.9,2.6-9.5,2.6l-8.3,0.2v25.7H134V206.5z M148,218.4v17h5.6c2.4,0,4.4-0.9,6.1-2.6c1.7-1.7,2.6-3.8,2.6-6.1
		c0-2.7-1-4.8-2.9-6.3c-1.9-1.5-4.7-2.2-8.2-2.2L148,218.4z"/>
	<path d="M188.7,206.5h14.1v40.6c0,3.8,1,6.8,3.1,9.1c2.1,2.3,4.8,3.4,8.3,3.4c3.9,0,7-1.2,9.1-3.5c2.2-2.3,3.2-5.6,3.2-9.8v-39.9
		h14.1v43c0,3.8-1,7.7-2.9,11.8c-2,4.1-5,7.2-9,9.3c-4.1,2.2-8.6,3.2-13.6,3.2c-9.1,0-15.8-2.5-20-7.6c-4.2-5.1-6.3-10.4-6.3-16
		V206.5z"/>
	<path d="M254.4,206.5h21.9c6.7,0,11.9,1.8,15.8,5.3c3.9,3.5,5.8,8.2,5.8,14.2c0,3.4-0.9,6.9-2.7,10.6c-1.8,3.7-5,6.6-9.8,8.7
		l18.6,27.7h-16.5l-17.2-25.7h-1.6v25.7h-14.3V206.5z M268.8,218.3v17.3h3.1c7.5,0,11.2-3.1,11.2-9.2c0-2.5-1-4.5-2.9-5.9
		c-1.9-1.5-4.6-2.2-8.1-2.2H268.8z"/>
	<path d="M315,206.5h37.4v13.2h-23.1v13.4h23.1v13h-23.1v13.8h23.1v13.2H315V206.5z"/>
	<path d="M56.9,286.9h14.3v25.6h23.5v-25.6h14.3v66.5H94.8v-26.4H71.2v26.4H56.9V286.9z"/>
	<path d="M145.9,286.9H157l27.1,66.5h-14.4l-5.3-13.1h-25.5l-5.2,13.1h-14.3L145.9,286.9z M151.5,308.6l-7.8,19.6h15.8L151.5,308.6z
		"/>
	<path d="M238.7,290.4v16.2c-7.2-4.3-13.5-6.5-18.9-6.5s-9.7,1.9-13,5.6c-3.2,3.7-4.9,8.7-4.9,15c0,5.9,1.7,10.7,5.1,14.2
		c3.4,3.6,8,5.3,13.7,5.3c5,0,11-2,17.9-6v16.1c-7.8,2.6-14.3,3.9-19.5,3.9c-8.9,0-16.5-3.3-22.8-9.8c-6.2-6.6-9.4-14.6-9.4-24
		c0-9.6,3.2-17.8,9.5-24.4c6.4-6.7,14.1-10,23.2-10C225.7,286,231.9,287.4,238.7,290.4z"/>
	<path d="M249.7,286.9h14.3v28.1h0.2l22-28.1h17.6l-25.2,31.7l26.3,34.7h-17.2l-23.4-31.1h-0.2v31.1h-14.3V286.9z"/>
	<path d="M352.5,292.9l-8.9,9.8c-4.7-2.8-8.1-4.2-10.1-4.2c-1.6,0-3,0.6-4.1,1.8c-1.1,1.2-1.7,2.6-1.7,4.3c0,3.3,3,6.1,8.9,8.5
		c4.4,1.9,7.6,3.5,9.9,5c2.2,1.5,4.1,3.6,5.6,6.3c1.5,2.7,2.3,5.6,2.3,8.7c0,5.7-2.3,10.7-6.9,14.9c-4.6,4.2-10,6.3-16.3,6.3
		c-6.9,0-13.7-3.2-20.4-9.7l9.4-11c4.2,4.4,8.2,6.5,11.8,6.5c1.7,0,3.4-0.8,5-2.3c1.6-1.5,2.4-3.1,2.4-4.8c0-3.5-3.7-6.5-11-9.2
		c-4.2-1.5-7.2-3-8.9-4.3c-1.8-1.3-3.2-3.3-4.4-5.8s-1.8-5.2-1.8-7.8c0-5.9,1.9-10.7,5.8-14.4c3.8-3.7,8.9-5.5,15.1-5.5
		C341.4,286,347.6,288.3,352.5,292.9z"/>
</g>
</svg>
