<?xml version="1.0" encoding="utf-8"?>
<!-- Generator: Adobe Illustrator 18.1.1, SVG Export Plug-In . SVG Version: 6.00 Build 0)  -->
<svg version="1.1" id="Layer_1" xmlns="http://www.w3.org/2000/svg" xmlns:xlink="http://www.w3.org/1999/xlink" x="0px" y="0px"
	 viewBox="0 0 377.9 377.9" enable-background="new 0 0 377.9 377.9" xml:space="preserve">
<rect x="0" y="0" fill="#00A79D" width="377.9" height="377.9"/>
<g>
	<path d="M125.7,212.4h48.1c12.9,0,23.3,3.8,31.3,11.3c7.9,7.5,11.9,17.4,11.9,29.7c0,8.1-1.9,15.7-5.8,23
		c-3.9,7.2-9.8,12.7-17.6,16.2c-7.9,3.6-14.6,5.4-20.1,5.6l-17.6,0.4v54.4h-30.1V212.4z M155.4,237.6v36h11.8c5.1,0,9.4-1.8,13-5.5
		c3.6-3.6,5.4-8,5.4-13c0-5.7-2-10.1-6.1-13.3c-4.1-3.1-9.8-4.7-17.3-4.7L155.4,237.6z"/>
	<path d="M241.1,212.4h30.3v54.2h49.8v-54.2h30.3v140.6h-30.3v-55.9h-49.8v55.9h-30.3V212.4z"/>
</g>
</svg>
